<?xml version="1.0" encoding="UTF-8"?>
<svg id="Expended_logos_USE_THIS_" data-name="Expended logos (USE THIS)" xmlns="http://www.w3.org/2000/svg" xmlns:xlink="http://www.w3.org/1999/xlink" viewBox="0 0 1333.3944 305.6399">
  <defs>
    <linearGradient id="linear-gradient" x1="-6216.9407" y1="-1387.816" x2="-6046.0984" y2="-1387.816" gradientTransform="translate(5891.9394 1405.2625) scale(.9463)" gradientUnits="userSpaceOnUse">
      <stop offset=".1698" stop-color="#fff" stop-opacity="0"/>
      <stop offset=".3256" stop-color="#fff" stop-opacity=".2481"/>
      <stop offset=".5082" stop-color="#fff" stop-opacity=".5125"/>
      <stop offset=".6737" stop-color="#fff" stop-opacity=".7223"/>
      <stop offset=".8159" stop-color="#fff" stop-opacity=".8734"/>
      <stop offset=".9294" stop-color="#fff" stop-opacity=".966"/>
      <stop offset="1" stop-color="#fff"/>
    </linearGradient>
    <linearGradient id="linear-gradient-2" x1="-6064.1789" y1="-1167.6249" x2="-6064.1789" y2="-1476.861" gradientTransform="translate(5891.9394 1405.2625) scale(.9463)" gradientUnits="userSpaceOnUse">
      <stop offset="0" stop-color="#fff"/>
      <stop offset=".0746" stop-color="#fff" stop-opacity=".9484"/>
      <stop offset=".2133" stop-color="#fff" stop-opacity=".8119"/>
      <stop offset=".401" stop-color="#fff" stop-opacity=".5908"/>
      <stop offset=".6276" stop-color="#fff" stop-opacity=".2896"/>
      <stop offset=".8285" stop-color="#fff" stop-opacity="0"/>
    </linearGradient>
    <linearGradient id="linear-gradient-3" x1="16709.816" y1="8021.3186" x2="16880.6584" y2="8021.3186" gradientTransform="translate(16110.2281 7806.0266) rotate(-180) scale(.9463)" xlink:href="#linear-gradient"/>
  </defs>
  <g>
    <circle cx="29.9017" cy="153.8199" r="29.1843" fill="#fff" stroke-width="0"/>
    <path d="M306.3568,153.8094v.0106c-.0053,16.115-13.0692,29.179-29.1843,29.179s-29.179-13.064-29.1843-29.179v-.0053c0-16.1204,13.064-29.1896,29.1843-29.1896,16.1151,0,29.179,13.064,29.1843,29.1843Z" fill="#fff" stroke-width="0"/>
    <path d="M182.7214,30.1846c0,11.228-1.2098,22.1748-3.5074,32.7129-7.6836,35.2176-27.5023,65.8982-54.8613,87.4309-17.8078,14.0191-38.8151,24.1646-61.7382,29.1684-10.5381,2.2976-21.485,3.5074-32.7129,3.5074,16.1203,0,29.1843-13.0639,29.1843-29.1843,0-16.1204-13.064-29.1843-29.1843-29.1843,12.9365,0,25.2629-2.6001,36.491-7.3067,22.8168-9.5672,41.0862-27.8365,50.6534-50.6533,4.7067-11.228,7.3067-23.5544,7.3067-36.491,0-16.115,13.064-29.1843,29.1843-29.1843s29.1843,13.0693,29.1843,29.1843Z" fill="url(#linear-gradient)" stroke-width="0"/>
    <path d="M153.5371,1c-16.1206,0-29.1843,13.0694-29.1843,29.1847v120.1435s0,127.1164,0,127.1164v.0158c.0057,16.1153,13.0637,29.1795,29.1843,29.1795,16.1206,0,29.1843-13.0694,29.1843-29.1847v-.0105s0-120.1435,0-120.1435V30.1847c0-16.1153-13.0636-29.1848-29.1842-29.1848Z" fill="url(#linear-gradient-2)" stroke-width="0"/>
    <path d="M124.3527,277.4447c0-11.228,1.2098-22.1748,3.5074-32.7129,7.6836-35.2176,27.5023-65.8982,54.8613-87.4309,17.8078-14.0191,38.8151-24.1646,61.7382-29.1684,10.5381-2.2976,21.485-3.5074,32.7129-3.5074-16.1203,0-29.1843,13.0639-29.1843,29.1843,0,16.1204,13.064,29.1843,29.1843,29.1843-12.9365,0-25.2629,2.6001-36.491,7.3067-22.8168,9.5672-41.0862,27.8365-50.6534,50.6533-4.7067,11.228-7.3067,23.5544-7.3067,36.491,0,16.115-13.064,29.1843-29.1843,29.1843s-29.1843-13.0693-29.1843-29.1843Z" fill="url(#linear-gradient-3)" stroke-width="0"/>
  </g>
  <g>
    <polygon points="1332.677 79.7201 1276.3269 231.87 1258.8269 279.1 1249.377 304.64 1216.517 304.64 1243.207 232.5697 1243.3369 232.2201 1243.207 231.87 1186.8569 79.7201 1219.707 79.7201 1258.8269 185.3402 1259.767 187.87 1260.707 185.3402 1299.8269 79.7201 1332.677 79.7201" fill="#fff" stroke-width="0"/>
    <path d="M1005.637,79.7201c-42.86,0-77.72,34.8599-77.72,77.7197s34.86,77.7202,77.72,77.7202,77.72-34.8701,77.72-77.7202-34.87-77.7197-77.72-77.7197ZM1005.637,201.2001c-24.13,0-43.76-19.6304-43.76-43.7603s19.63-43.7598,43.76-43.7598,43.76,19.6299,43.76,43.7598-19.63,43.7603-43.76,43.7603Z" fill="#fff" stroke-width="0"/>
    <path d="M646.027,79.7201v86.46c0,12.1201-3.19,24.0498-9.22,34.4897-6.05,10.46-14.78,19.1899-25.26,25.2603-10.44,6.04-22.36,9.23-34.49,9.23-12.12,0-24.04-3.1899-34.48-9.23-10.47-6.0601-19.21-14.8003-25.27-25.2603-6.03-10.4399-9.22-22.3696-9.22-34.4897v-86.46h32.99v86.46c0,19.8496,16.14,35.9897,35.98,35.9897s35.99-16.1401,35.99-35.9897v-86.46h32.98Z" fill="#fff" stroke-width="0"/>
    <path d="M908.4269,148.6898v86.4702h-32.99v-86.4702c0-19.8398-16.14-35.98-35.99-35.98-19.84,0-35.98,16.1401-35.98,35.98v86.4702h-32.99v-86.4702c0-19.8398-16.14-35.98-35.98-35.98-19.85,0-35.99,16.1401-35.99,35.98v86.4702h-32.98v-86.4702c0-12.1201,3.19-24.04,9.22-34.48,6.05-10.46,14.78-19.1997,25.26-25.27,10.43-6.0298,22.36-9.2197,34.49-9.2197,12.11,0,24.04,3.1899,34.48,9.2197,6.46,3.7402,12.2599,8.4902,17.25,14.1299l.75.8501.75-.8501c4.96-5.6299,10.7599-10.3799,17.24-14.1299,10.43-6.0298,22.36-9.2197,34.48-9.2197s24.05,3.1899,34.49,9.2197c10.47,6.0601,19.2,14.8003,25.26,25.27,6.04,10.4399,9.23,22.3599,9.23,34.48Z" fill="#fff" stroke-width="0"/>
    <polygon points="496.3669 202.1698 496.3669 235.16 375.917 235.16 375.917 .9999 408.907 .9999 408.907 202.1698 496.3669 202.1698" fill="#fff" stroke-width="0"/>
    <path d="M1135.827,61.2299v18.4902h34.99v32.9897h-34.99v122.4502h-32.98V61.2299c0-9.0298,1.95-17.71,5.79-25.8101,5.95-12.5098,16.11-22.6797,28.62-28.6299,8.11-3.8398,16.79-5.79,25.81-5.79h25.2399v32.9902h-25.2399c-15.02,0-27.24,12.2197-27.24,27.2397Z" fill="#fff" stroke-width="0"/>
  </g>
</svg>